# xmcd CD database file
#
# Track frame offsets:
#	150
#	12624
#	26494
#	38267
#	52774
#	66502
#	80146
#	92448
#	104983
#	118614
#	132273
#	146081
#	161118
#	173607
#	188652
#	202200
#	216252
#	235601
#	249600
#
# Disc length: 3716 seconds
#
# Revision: 0
# Processed by: cddbd v1.5.2PL0 Copyright (c) Steve Scherf et al.
# Submitted via: CDex 1.70beta2
#
DISCID=100e8213
DTITLE=Coleman Hawkins - Giants of Jazz Disc 2
DYEAR=1900
DGENRE=Jazz
TTITLE0=Georgia Jubilee: Benny Goodman and His Orchestra
TTITLE1=Lost in a Fog: Coleman Hawkins (Stanley Black, piano)
TTITLE2=After You’ve Gone: Coleman Hawkins with The Ramblers
TTITLE3=Star Dust: Coleman Hawkins (Stéphane Grappelly, piano - Django Reinhardt, guitar) 
TTITLE4=Chicago: Coleman Hawkins with The Ramblers
TTITLE5=Meditation: Coleman Hawkins with The Ramblers
TTITLE6=What Harlem Is To Me: Coleman Hawkins with The Ramblers
TTITLE7=Honeysuckle Rose: Coleman Hawkins and His All‑Star Jam Band 
TTITLE8=Crazy Rhythm: Coleman Hawkins and His All‑Star Jam Band 
TTITLE9=Sweet Georgia Brown: Coleman Hawkins and His All‑Star Jam Band
TTITLE10=Body and Soul: Coleman Hawkins and His Orchestra
TTITLE11=Scratch My Back: Varsity Seven
TTITLE12=Dinah: Lionel Hampton and His Orchestra
TTITLE13=When Day is Done: Coleman Hawkins All‑Star Octet
TTITLE14=The Sheik of Araby: Coleman Hawkins All‑Star Octet
TTITLE15=Bouncing with Bean: Coleman Hawkins’ All‑Star Octet
TTITLE16=Sweet Lorraine: Coleman Hawkins’ Swing Four
TTITLE17=Stuffy: Coleman Hawkins and His Orchestra
TTITLE18=Maria: Ben Webster‑Coleman Hawkins
EXTD=
EXTT0=
EXTT1=
EXTT2=
EXTT3=
EXTT4=
EXTT5=
EXTT6=
EXTT7=
EXTT8=
EXTT9=
EXTT10=
EXTT11=
EXTT12=
EXTT13=
EXTT14=
EXTT15=
EXTT16=
EXTT17=
EXTT18=
PLAYORDER=
